<svg version="1.2" xmlns="http://www.w3.org/2000/svg" viewBox="0 0 463 547" width="463" height="547">
	<title>girl_circle-svg</title>
	<defs>
		<clipPath clipPathUnits="userSpaceOnUse" id="cp1">
			<path d="m10.72 1.82l451.25-0.04 0.07 726.1-451.25 0.05z"/>
		</clipPath>
		<clipPath clipPathUnits="userSpaceOnUse" id="cp2">
			<path d="m222.99 546.69c-132.18 0.01-239.04-114.07-239.05-255.22-0.02-141.14 106.82-255.25 239.01-255.26 132.18-0.01 239.04 114.07 239.05 255.22 0.02 141.14-106.82 255.24-239.01 255.26z"/>
		</clipPath>
		<clipPath clipPathUnits="userSpaceOnUse" id="cp3">
			<path d="m10.72 1.82l451.25-0.04 0.07 726.1-451.25 0.05z"/>
		</clipPath>
		<clipPath clipPathUnits="userSpaceOnUse" id="cp4">
			<path d="m15.56-16.9l451.25-0.04 0.08 726.1-451.26 0.05z"/>
		</clipPath>
	</defs>
	<style>
		.s0 { fill: #eee5e6 } 
		.s1 { fill: #fd8d6a } 
		.s2 { fill: #fdb95f } 
		.s3 { fill: #035748 } 
		.s4 { fill: #f0c4b4 } 
		.s5 { fill: #1c1c1c } 
		.s6 { fill: #131313 } 
		.s7 { fill: #2a040a } 
		.s8 { fill: #b43283 } 
		.s9 { fill: #000000 } 
		.s10 { fill: #ffffff } 
		.s11 { fill: #037b65 } 
		.s12 { fill: #fdfdfd } 
		.s13 { fill: #4d9184 } 
	</style>
	<g id="Clip-Path" clip-path="url(#cp1)">
		<g id="Layer">
			<g id="Clip-Path" clip-path="url(#cp2)">
				<g id="Layer">
					<g id="Clip-Path" clip-path="url(#cp3)">
						<g id="Layer">
							<g id="Layer">
								<path id="Layer" class="s0" d="m2116.5 638.1l22 0.4-22 0.5z"/>
								<path id="Layer" class="s0" d="m2048.3 640l14.2 0.5-14.2 0.5z"/>
								<path id="Layer" class="s0" d="m2021 641l13.2 0.5-13.2 0.5z"/>
								<path id="Layer" class="s0" d="m1302.7 643l32.7 0.5-32.7 0.5z"/>
								<path id="Layer" class="s0" d="m1156.5 645.9l21 0.5-21 0.5z"/>
								<path id="Layer" class="s0" d="m1119.5 646.9l19 0.5-19 0.5z"/>
								<path id="Layer" fill-rule="evenodd" class="s1" d="m629.2 1063.1c1.2 3.8 4.6 5.3 8.3 5.4l-3.4 0.5zm-10.7-10.7l4.9 5.8z"/>
								<path id="Layer" class="s2" d="m737 1522.2l1.5 11.7q-0.7 0.1-1.3 0.3z"/>
								<path id="Layer" fill-rule="evenodd" class="s3" d="m558.5 1157.4c1.5-0.6 2.9-0.4 3.4 1.3q0.5 1.7 0 0 0.7 3 0.3 4.7c-0.4 1.7-0.9 3.6-2 4.8-1.2 1.2-2.2 1.3-3.3 1.2-1-0.2-1 0-2.1-1.7-1.2-1.6-1.5-4.1-0.6-6.4 1-2.4 2.8-3.4 4.3-3.9z"/>
								<g id="Layer">
									<path id="Layer" class="s4" d="m229.9 260c2.4-0.2 4.7-0.9 6.5-2.5l-1.4-14.2q-26.9-6.3-40.1-25.3-21-23.7-17.6-70 4.7-34 19.6-53.7 5-3.5 13.2-5.4l14.1-19 20 3c17.4 6.7 0.1 6.3 18.5 5.8 13.6-0.4 9.2-1.9 14.6 0l16.6-8.8 20.5 26.1q24 81.4 32.1 98.2-34.5 50.7-59.4 65.3-0.3 13.9 8.3 19 2.7 1.3 5.6 2.3"/>
									<path id="Layer" class="s5" d="m208.6 96.8c12-3.4 22.7 0.5 26.1 13.4l-9.3-6c-5.6-3.5-12.8-2.7-18.9-1.2l-7.4 3.1-0.7-1.4z"/>
									<path id="Layer" class="s6" d="m303.7 122l-1.1 0.9-8.1-5.4c-6.7-3.6-15-7.1-22.2-6.3l-11.8 1.6c6.2-9.7 19.4-8.8 32.8-1.4z"/>
									<path id="Layer" class="s6" d="m281.8 123.8c-0.8 0.6-2.6 2.1-4.8 2.3q-2.2 0.2-3-0.4-2.2-2.4-4.8-1.2l-4.2 2.2c3.2-5.9 7.6-6.9 11.4-4.3q2 2.5 5.4 1.4z"/>
									<path id="Layer" class="s6" d="m281.8 123.8c-0.8 0.6-2.6 2.1-4.8 2.3q-2.2 0.2-3-0.4-2.2-2.4-4.8-1.2l-4.2 2.2c3.2-5.9 7.6-6.9 11.4-4.3q2 2.5 5.4 1.4z"/>
									<path id="Layer" class="s6" d="m217.1 116.3c4.4-1.3 8.3 1 9.5 7.6l-3.4-3.4q-2-1.9-4.9-0.3-0.9 0.3-2.9-0.6c-2-0.8-3.3-2.8-3.9-3.6q2.9 2.1 5.6 0.3z"/>
									<path id="Layer" class="s7" d="m261 3.3c29.1 0.5 50.6-2.9 68 22.3l9.8 14.6q11.1 4.3 23.4 9.7c12.2 5.4 23.1 25.3 24.5 48.8 0.9 15.2-0.1 37.3 0 52.6 0.1 16.8 7.5 19.7 12.5 35.8q1.1 3.4 2.3 6.7c3.8 9.8 10.5 24.1 19.2 25.7q-13.7-2.7-19.4-12.5c-3.1-4.1-12.1-11.7 3 8.8 4.3 4.5 11.1 15.2 10.2 42.4l-2.9 47.8c4.6 44.2 0.4 43.8-24.9 56-25.2 12.2-23.9-33.8-53.6-34.4q-31.5-46.2-42.4-58.7-3.7-8.9-2.9-22.4 0.3-51.4 25.3-54.1-15.3-18.3-20.4-47.7-3.2-29.1 9.7-54.6l-7.8-15.6q-26.5 10-48.2 6.8-21.8-3.2-37.1 10.5-2.7 16.6-19.9 31.9-9.9 0.9-7.8 46.8 3.8 35.7 25.8 53.1 12.7 10.5 32.6 12.5 1.1 12-3.4 17.7l-21.9 2.5c-3.4-0.9-11.5 0.3-9.1 0.4q2.4 0-5.7-1.9c-6.1-3.7-11.2-1.1-17.8 0-13.9 2.3-27.4 5.3-40 11.7l-1.2 1.5-3.9 2.2q1.5-2.9 0-5.8c-1.4-2.9-3-29.6 2.9-42.8 1.9-4.3 4.8-8.1 6.6-12.4 5.3-12.6 7.9-26 8.7-39.7v-1.9q-7.8-93.7 38.5-133.1 24.7-24.5 67.3-31.2z"/>
									<path id="Layer" class="s8" d="m249.9 493.4l1.9 0.1q39.3 2.5 70.2-3.4 50.6 62.8 56.1 176.8 1.9 22.5-0.3 42c-9.3 6.6-27.8 5.1-61.8 10.4-33.9 5.4-78.7 7.1-111.2 7.1-32.4-0.1-110-9.6-116.9-31.2-7-21.7 3.1-93.7 11.2-125.7 8.1-32.1 22-70.4 47.6-97.3 36.6 15.2 68.1 18.4 103.2 21.2z"/>
									<path id="Layer" class="s9" d="m148.8 424.2l59.4 4.9"/>
									<path id="Layer" fill-rule="evenodd" class="s10" d="m219 118.7c1.8-0.6 3.8 0.5 4.6 1.8 0.8 1.4 0.9 3.7 0.7 6.3-0.2 2.6-1 5.6-1.9 6.5-0.9 1-3.8 1.5-5.6 0.3-1.8-1.3-3.3-4.9-2.2-8.6 1.1-3.7 2.5-5.4 4.4-6.3q-1.8 0.6 0 0z"/>
									<path id="Layer" fill-rule="evenodd" class="s10" d="m270.5 124.1c2.3-0.2 3.9 0.6 4.6 3 0.7 2.5 1 5.7-0.5 9.2-1.6 3.6-3.7 4.3-6.8 3.2-3.1-1-3.3-7-2.2-10.1 1.1-3.1 2.9-4.7 4.9-5.3q-2.4 0.2 0 0z"/>
									<path id="Layer" fill-rule="evenodd" class="s11" d="m219.9 120.3c1.5-0.7 2.9-0.6 3.6 1.2q0.7 1.8 0 0 1 3.2 0.8 5c-0.2 1.9-0.5 4.1-1.6 5.5-1 1.4-4.3 1.4-5.6 0-1.3-1.4-1.9-4.3-1.2-7 0.7-2.7 2.5-4 4-4.7z"/>
									<path id="Layer" fill-rule="evenodd" class="s11" d="m270.8 125.5c1.6-0.7 3-0.6 3.8 1.1q0.7 1.8 0 0 1 3.2 0.8 5.1c-0.2 1.9-0.6 4.1-1.7 5.5-1.1 1.3-4.4 1.4-5.8 0-1.4-1.5-2-4.4-1.3-7.1 0.8-2.6 2.6-3.9 4.2-4.6z"/>
									<path id="Layer" fill-rule="evenodd" class="s9" d="m220.4 122.3c1.3-0.5 2.7-0.1 3.2 0.8 0.5 0.9 0.8 2.7 0.7 3.6 0 1-0.5 3.1-1.4 4.1-0.9 1-3.6 1.2-4.7 0.1-1-1-2-3.3-1.4-5.2 0.6-2 2.3-2.9 3.6-3.4z"/>
									<path id="Layer" fill-rule="evenodd" class="s10" d="m219.9 123.4c0.4 0 0.7 0.2 0.7 0.7q-0.1 0.6 0 0-0.3 1-0.6 1.5c-0.3 0.4-0.7 1-1.1 1.2-0.5 0.3-0.7 0.2-1 0-0.2-0.1-0.3-0.1-0.3-0.7-0.1-0.6 0.1-1.4 0.6-2 0.6-0.6 1.2-0.7 1.7-0.7z"/>
									<path id="Layer" fill-rule="evenodd" class="s9" d="m271.5 127.1c1.2-0.5 2.4-0.4 3 0.8q0.5 1.3 0 0 0.8 2.3 0.6 3.6c-0.2 1.3-0.4 2.8-1.3 3.7-0.9 1-1.7 1.1-2.6 1.1-0.9 0-0.9 0.1-2-1.1-1.1-1.1-1.5-3-1-4.8 0.6-1.9 2.1-2.8 3.3-3.3z"/>
									<path id="Layer" fill-rule="evenodd" class="s10" d="m270.8 128.4c0.5 0 0.8 0.2 0.7 0.8q0 0.5 0 0-0.2 1-0.5 1.4c-0.3 0.5-0.7 1-1.1 1.3-0.5 0.2-0.7 0.1-1 0-0.3-0.1-0.3-0.1-0.4-0.7-0.1-0.6 0.2-1.4 0.7-2 0.5-0.7 1.2-0.8 1.6-0.8z"/>
									<path id="Layer" class="s12" d="m214.7 190.5c6.7 8.6 25.5 24.1 47 3.8-15 11-42.4-0.3-47-3.8z"/>
								</g>
								<path id="Layer" fill-rule="evenodd" class="s12" d="m1148.8 1508.5l0.4 1.5-2.4 6.3-0.5-2.4zm142.3 14.6l1.5 14.1h-1zm-42.9 3.9l0.5 1.5-5.4 9.2 0.5-1.4z"/>
								<path id="Layer" fill-rule="evenodd" class="s0" d="m394.4 1775.6l2.4 8.3h-0.9zm266.5 14.1l0.5 3.4 1.5-4.4-0.5-4.3zm-5.8 25.3l0.4 2.4 4.4-15.1-0.5-3.4zm-231.9 36.1h1l-4.4-9.3c-1.7 3.8 0.2 7.1 3.4 9.3zm5.8 11.7l2 1-3.4-5.4zm12.1 9.3h76.1c1.1-0.4 2.3-0.8 3.6-1.1q-43.2-0.2-86.5 0.1c-1 2.8 5.8 1.2 6.8 1zm93.2-1q1.3 0.7 2.4 1.9l98.9-0.5q-50.7-1.1-101.3-1.4zm-13.5-0.1q6.8 0 13.5 0.1c-3.8-2-9.1-1.2-13.5-0.1z"/>
							</g>
						</g>
					</g>
					<path id="Layer" class="s13" d="m27.9 350.2c8.3-11.2 22.9-23.6 38-36.9q15.1-13.3 76.8-47.3l4.4-2.4c22.4-12.7 47.3-11.5 49.4-10.7 2.1 0.8 7.2 2.2 8.8 1.7 1.5-0.4 7.3-2.2 9.1-1.7h15.6c4 0.4 1.6-10.8 11.7-11.7q46-0.2 49 2.1 3.1 2.4 2.1 9.1 23.8 26.3 47.3 25.8 23.9 1.4 38 12.7l7.3 6.3q33.6 44.3 54.6 101.1l19.5 87q-14.9 57.7-33.7 83.3-18.8 25.7-49.9 56.6c-4.5 1.1-26.2-71.5-21.5-78.2 4.8-6.6 39.5-44.1 27.9-57.3q-9.9-40.5-34.4-88.7-2.5 18.2-2.3 23.2 0.3 5 1.3 23.4 1.5 21.4 1.5 26c0 4.6-1.3 3.8 2.1 15.9q-41.5 9.5-91.3 7l-2.9-1q-76.5-2.4-134.8-33.3 5-40 0-44.8c-5.1-4.8-6.4-18.4-8.5-38.8-24.6 16.6-96.4 35.7-101.2 25.2-4.8-10.5 7.8-42.5 16.1-53.6z"/>
				</g>
			</g>
			<g id="Clip-Path" clip-path="url(#cp4)">
				<g id="Layer">
					<g id="Layer">
						<path id="Layer" class="s0" d="m2116.5 636.5l22 0.5-22 0.5z"/>
						<path id="Layer" class="s0" d="m2048.3 638.5l14.2 0.4-14.2 0.5z"/>
						<path id="Layer" class="s0" d="m2021 639.4l13.2 0.5-13.2 0.5z"/>
						<path id="Layer" class="s0" d="m1302.7 641.5l32.7 0.4-32.7 0.5z"/>
						<path id="Layer" class="s0" d="m1156.5 644.4l21 0.5-21 0.5z"/>
						<path id="Layer" class="s0" d="m1119.5 645.4l19 0.5-19 0.4z"/>
						<path id="Layer" fill-rule="evenodd" class="s1" d="m629.2 1061.6c1.2 3.8 4.6 5.3 8.3 5.4l-3.4 0.4zm-10.7-10.7l4.9 5.9z"/>
						<path id="Layer" class="s2" d="m737 1520.7l1.5 11.6q-0.7 0.2-1.3 0.4z"/>
						<path id="Layer" fill-rule="evenodd" class="s3" d="m558.5 1155.8c1.5-0.5 2.9-0.3 3.4 1.4q0.5 1.6 0 0 0.7 2.9 0.3 4.6c-0.4 1.7-0.9 3.7-2 4.8-1.2 1.2-2.2 1.3-3.3 1.2-1-0.1-1 0-2.1-1.6-1.2-1.7-1.5-4.1-0.6-6.5 1-2.3 2.8-3.4 4.3-3.9z"/>
						<g id="Layer">
							<path id="Layer" class="s5" d="m208.6 95.3c12-3.4 22.7 0.4 26.1 13.3l-9.3-6c-5.6-3.5-12.8-2.7-18.9-1.1l-7.4 3-0.7-1.3z"/>
							<path id="Layer" class="s6" d="m303.7 120.5l-1.1 0.9-8.1-5.5c-6.7-3.6-15-7-22.2-6.2l-11.8 1.5c6.2-9.6 19.4-8.8 32.8-1.3z"/>
							<path id="Layer" class="s6" d="m281.8 122.3c-0.8 0.6-2.6 2.1-4.8 2.3q-2.2 0.1-3-0.5-2.2-2.3-4.8-1.1l-4.2 2.1c3.2-5.8 7.6-6.8 11.4-4.3q2 2.6 5.4 1.5z"/>
							<path id="Layer" class="s6" d="m281.8 122.3c-0.8 0.6-2.6 2.1-4.8 2.3q-2.2 0.1-3-0.5-2.2-2.3-4.8-1.1l-4.2 2.1c3.2-5.8 7.6-6.8 11.4-4.3q2 2.6 5.4 1.5z"/>
							<path id="Layer" class="s6" d="m217.1 114.7c4.4-1.2 8.3 1.1 9.5 7.6l-3.4-3.3q-2-1.9-4.9-0.4-0.9 0.4-2.9-0.5c-2-0.9-3.3-2.8-3.9-3.7q2.9 2.1 5.6 0.3z"/>
							<path id="Layer" class="s7" d="m261 1.8c29.1 0.4 50.6-3 68 22.2l9.8 14.6q11.1 4.4 23.4 9.8c12.2 5.4 23.1 25.3 24.5 48.7 0.9 15.2-0.1 37.4 0 52.7 0.1 16.7 7.5 19.6 12.5 35.7q1.1 3.4 2.3 6.7c3.8 9.8 10.5 24.1 19.2 25.8q-13.7-2.8-19.4-12.5c-3.1-4.2-12.1-11.8 3 8.8 4.3 4.4 11.1 15.1 10.2 42.4l-2.9 47.7q-39.6-24.9-66.7-35.7c-34-13.7-41.8-10.6-48.1-22.8-6.1-12.1-8.7-52.4 16.3-55q-15.3-18.3-20.4-47.8-3.2-29.1 9.7-54.6l-7.8-15.6q-26.5 10.1-48.2 6.9-21.8-3.2-37.1 10.4-2.7 16.6-19.9 32-9.9 0.8-7.8 46.8 3.8 35.6 25.8 53.1 12.7 10.4 32.6 12.5l-25.3 20.1c-3.4-0.8-11.5 0.4-9.1 0.4q2.4 0.1-5.7-1.8c-6.1-3.8-11.2-1.1-17.8 0-13.9 2.3-27.4 5.3-40 11.7l-1.2 1.4-3.9 2.3q1.5-3 0-5.9c-1.4-2.9-3-29.6 2.9-42.8 1.9-4.3 4.8-8 6.6-12.3 5.3-12.7 7.9-26.1 8.7-39.7v-2q-7.8-93.6 38.5-133 24.7-24.6 67.3-31.2z"/>
							<path id="Layer" class="s9" d="m148.8 422.7l59.4 4.8"/>
							<path id="Layer" fill-rule="evenodd" class="s10" d="m219 117.2c1.8-0.6 3.8 0.4 4.6 1.8 0.8 1.4 0.9 3.7 0.7 6.3-0.2 2.6-1 5.5-1.9 6.5-0.9 0.9-3.8 1.5-5.6 0.2-1.8-1.3-3.3-4.9-2.2-8.6 1.1-3.6 2.5-5.4 4.4-6.2q-1.8 0.5 0 0z"/>
							<path id="Layer" fill-rule="evenodd" class="s10" d="m270.5 122.5c2.3-0.1 3.9 0.6 4.6 3.1 0.7 2.5 1 5.6-0.5 9.2-1.6 3.5-3.7 4.2-6.8 3.2-3.1-1.1-3.3-7-2.2-10.1 1.1-3.2 2.9-4.8 4.9-5.4q-2.4 0.2 0 0z"/>
							<path id="Layer" fill-rule="evenodd" class="s11" d="m219.9 118.8c1.5-0.7 2.9-0.6 3.6 1.1q0.7 1.8 0 0 1 3.2 0.8 5.1c-0.2 1.9-0.5 4.1-1.6 5.4-1 1.4-4.3 1.5-5.6 0-1.3-1.4-1.9-4.3-1.2-7 0.7-2.6 2.5-3.9 4-4.6z"/>
							<path id="Layer" fill-rule="evenodd" class="s11" d="m270.8 123.9c1.6-0.7 3-0.6 3.8 1.2q0.7 1.8 0 0 1 3.2 0.8 5.1c-0.2 1.8-0.6 4-1.7 5.4-1.1 1.4-4.4 1.4-5.8 0-1.4-1.4-2-4.3-1.3-7 0.8-2.7 2.6-4 4.2-4.7z"/>
							<path id="Layer" fill-rule="evenodd" class="s9" d="m220.4 120.7c1.3-0.5 2.7 0 3.2 0.9 0.5 0.9 0.8 2.6 0.7 3.6 0 0.9-0.5 3.1-1.4 4.1-0.9 1-3.6 1.1-4.7 0.1-1-1-2-3.3-1.4-5.3 0.6-1.9 2.3-2.9 3.6-3.4z"/>
							<path id="Layer" fill-rule="evenodd" class="s10" d="m219.8 121.8c0.5 0 0.8 0.2 0.8 0.8q-0.1 0.5 0 0-0.3 1-0.6 1.4c-0.3 0.5-0.7 1-1.1 1.3-0.5 0.2-0.7 0.1-1 0-0.2-0.2-0.3-0.1-0.3-0.7-0.1-0.7 0.1-1.4 0.6-2 0.6-0.7 1.2-0.8 1.6-0.8z"/>
							<path id="Layer" fill-rule="evenodd" class="s9" d="m271.5 125.6c1.2-0.5 2.4-0.4 3 0.8q0.5 1.2 0 0 0.8 2.2 0.6 3.5c-0.2 1.3-0.4 2.8-1.3 3.8-0.9 1-1.7 1.1-2.6 1.1-0.9 0-0.9 0.1-2-1.1-1.1-1.2-1.5-3-1-4.9 0.6-1.8 2.1-2.7 3.3-3.2z"/>
							<path id="Layer" fill-rule="evenodd" class="s10" d="m270.8 126.9c0.5 0 0.8 0.2 0.7 0.7q0 0.6 0 0-0.2 1-0.5 1.5c-0.3 0.4-0.7 1-1.1 1.2-0.5 0.3-0.7 0.2-1 0-0.3-0.1-0.3 0-0.4-0.7-0.1-0.6 0.2-1.4 0.7-2 0.5-0.6 1.2-0.7 1.6-0.7z"/>
							<path id="Layer" class="s12" d="m214.7 189c6.7 8.6 25.5 24.1 47 3.8-15 10.9-42.4-0.3-47-3.8z"/>
						</g>
						<path id="Layer" fill-rule="evenodd" class="s12" d="m1148.8 1507l0.4 1.4-2.4 6.3-0.5-2.4zm142.3 14.6l1.5 14.2h-1zm-42.9 3.9l0.5 1.4-5.4 9.3 0.5-1.5z"/>
						<path id="Layer" fill-rule="evenodd" class="s0" d="m394.4 1774.1l2.4 8.3h-0.9zm266.5 14.1l0.5 3.4 1.5-4.4-0.5-4.4zm-5.8 25.3l0.4 2.5 4.4-15.1-0.5-3.4zm-231.9 36h1l-4.4-9.2c-1.7 3.7 0.2 7 3.4 9.2zm5.8 11.7l2 1-3.4-5.3zm12.1 9.2h76.1c1.1-0.3 2.3-0.7 3.6-1.1q-43.2-0.2-86.5 0.1c-1 2.9 5.8 1.2 6.8 1zm93.2-1q1.3 0.7 2.4 2l98.9-0.5q-50.7-1.1-101.3-1.5zm-13.5-0.1q6.7 0.1 13.5 0.1c-3.8-2-9.1-1.2-13.5-0.1z"/>
					</g>
				</g>
			</g>
		</g>
	</g>
</svg>