<?xml version="1.0" encoding="UTF-8" standalone="no"?><svg xmlns="http://www.w3.org/2000/svg" xmlns:xlink="http://www.w3.org/1999/xlink" style="isolation:isolate" viewBox="0 0 137 253" width="137pt" height="253pt"><defs><clipPath id="_clipPath_iEZFhfFd7dj7kVcXhf1IwnsFWMPgrfar"><rect width="137" height="253"/></clipPath></defs><g clip-path="url(#_clipPath_iEZFhfFd7dj7kVcXhf1IwnsFWMPgrfar)"><g style="isolation:isolate"/><g><path d=" M 110.406 249.247 Q 80.102 236.113 55.132 193.841 Q 28.181 151.168 29.549 113.679 L 31.009 109.633 C 27.216 104.534 23.953 98.393 24.199 91.853 L 24.199 91.853 L 25.149 90.589 L 24.615 89.037 L 24.615 89.037 L 69.052 70.868 L 68.938 71.288 C 72.38 71.352 75.498 75.342 75.474 78.414 C 75.45 81.495 77.766 83.703 79.989 85.531 L 79.989 85.531 Q 79.418 84.547 85.068 88.487 C 90.719 92.426 99.795 103.173 103.036 110.106 Q 109.334 123.575 117.998 145.292 Q 143.361 224.546 132.99 247.565 C 128.012 252.619 120.394 253.591 110.406 249.247 Z " fill="rgb(77,145,132)"/><path d=" M 24.698 90.589 L 21.009 79.866 L 9.027 51.075 C 4.387 43.325 0.986 34.424 1.531 25.262 L 1.531 25.262 L 3.049 24.821 C 9.909 27.906 13.737 35.818 16.373 42.356 L 16.373 42.356 L 17.823 46.216 L 18.646 45.647 C 12.69 34.505 8.51 22.092 8.76 9.333 L 8.76 9.333 L 10.278 8.892 C 17.485 18.1 23.955 28.03 28.521 38.829 L 28.521 38.829 L 29.344 38.26 Q 20.996 18.761 22.494 1.064 Q 26.184 0.541 28.813 5.815 L 38.904 29.227 L 39.727 28.659 C 36.771 20.755 35.695 12.108 37.796 3.865 L 37.796 3.865 L 40.451 5.069 L 53.942 41.325 C 53.667 46.8 56.602 51.909 59.87 56.068 L 59.87 56.068 L 60.82 54.805 C 63.599 46.83 68.364 39.688 74.064 33.507 L 74.064 33.507 L 75.328 34.457 C 75.948 44.668 74.593 54.949 71.244 64.62 L 71.244 64.62 L 69.134 72.42 L 24.698 90.589 L 24.698 90.589 Z " fill="rgb(236,199,185)"/></g></g></svg>