<?xml version="1.0" encoding="UTF-8" standalone="no"?>
<!DOCTYPE svg PUBLIC "-//W3C//DTD SVG 1.1//EN" "http://www.w3.org/Graphics/SVG/1.1/DTD/svg11.dtd">
<!-- Created with Vectornator (http://vectornator.io/) -->
<svg height="100%" stroke-miterlimit="10" style="fill-rule:nonzero;clip-rule:evenodd;stroke-linecap:round;stroke-linejoin:round;" version="1.1" viewBox="0 0 917 917" width="100%" xml:space="preserve" xmlns="http://www.w3.org/2000/svg" xmlns:vectornator="http://vectornator.io" xmlns:xlink="http://www.w3.org/1999/xlink">
<defs/>
<g id="Layer-2" vectornator:layerName="Layer 2">
<path d="M453.25 3.625C141.488 3.19686 8.86391 245.116 3.25 451.969C-2.36385 658.821 135.849 909.745 444.531 913.531C753.212 917.317 905.277 727.246 912.375 478.438C918.273 271.676 841.685 4.15841 453.25 3.625ZM315.938 296.656C359.46 296.024 400.65 307.182 424.781 322.938C424.467 323.314 399.838 386.514 395.625 397.312C395.26 397.613 343.484 364.815 297.469 378.812C251.453 392.811 245.619 435.368 243.75 477.062C241.88 518.756 254.425 577.227 302.438 583.562C350.45 589.899 409.094 563.938 409.094 563.938C409.094 563.937 409.699 634.437 409.812 644.219C315.296 674.903 146.658 687.694 143.375 478.969C141.221 341.992 232.849 297.863 315.938 296.656ZM441.469 302.094L548.719 303.312L615.375 551.062L679.719 303.156L786.5 303.812L671.531 656.969L556.062 658.531L441.469 302.094Z" fill="#000000" fill-rule="evenodd" opacity="1" stroke="#000000" stroke-linecap="round" stroke-linejoin="round" stroke-width="0"/>
</g>
</svg>
